# xmcd
#
# Track frame offsets:
# 150
# 26435
# 50577
# 79275
# 91492
# 111030
# 119720
# 137325
# 152512
# 175102
# 192072
# 203832
# 217872
# 231442
# 246072
# 256640
# 264647
# 281760
# 291590
#
# Disc length: 4009 seconds
#
#
# Revision: 3
# Processed by: cddbd v1.5.1PL2 Copyright (c) Steve Scherf et al.
# Submitted via: FreeRIP 2.931 
#
DISCID=100fa713
DTITLE=Arthur Moreira Lima - 06 - Chopin II - As 19 Valsas
DYEAR=1999
DGENRE=Classical
TTITLE0=Grande Valsa Brilhante, em Mi Bemol Maior, Op. 18
TTITLE1=Valsa Brilhante, em Lá Bemol Maior, Op. 34 No. 1
TTITLE2=Valsa Brilhante, em Lá Menor, Op. 34 No. 2
TTITLE3=Valsa Brilhante, em Fá Maior, Op. 34 No. 3
TTITLE4=Grande Valsa, em Lá Bemol Maior, Op. 42
TTITLE5=Valsa em Ré Bemol Maior, Op. 64 No. 1
TTITLE6=Valsa em Dó Sustenido Menor, Op. 64 No. 2
TTITLE7=Valsa em Lá Bemol Maior, Op. 64 No. 3
TTITLE8=Valsa em Lá Bemol Maior, Op. 69 No. 1
TTITLE9=Valsa em Si Menor, Op. 69 No. 2
TTITLE10=Valsa em Sol Bemol Maior, Op. 70 No. 1
TTITLE11=Valsa em Fá Menor, Op. 70 No. 2
TTITLE12=Valsa em Ré Bemol Maior, Op. 70 No. 3
TTITLE13=Valsa em Mi Menor, (Op. póstumo)
TTITLE14=Valsa em Mi Maior (Op. póstumo)
TTITLE15=Valsa em Lá Bemol Maior (Op. póstumo)
TTITLE16=Valsa em Mi Bemol Maior (Op. póstumo)
TTITLE17=Valsa em Mi Bemol Maior (Op. póstumo)
TTITLE18=Valsa em Lá Menor (Op. póstumo)
EXTD=Coleção "Meu Piano"
EXTT0=
EXTT1=
EXTT2=
EXTT3=
EXTT4=
EXTT5=
EXTT6=
EXTT7=
EXTT8=
EXTT9=
EXTT10=
EXTT11=
EXTT12=
EXTT13=
EXTT14=
EXTT15=
EXTT16=
EXTT17=
EXTT18=
PLAYORDER=
